<?xml version="1.0" encoding="UTF-8"?><svg width="20px" height="20px" viewBox="0 0 20 20" version="1.1" xmlns="http://www.w3.org/2000/svg" xmlns:xlink="http://www.w3.org/1999/xlink">    <!-- Generator: Sketch 53.2 (72643) - https://sketchapp.com -->    <title>Fill 1</title>    <desc>Created with Sketch.</desc>    <g id="SPIN-2-WIN" stroke="none" stroke-width="1" fill="none" fill-rule="evenodd">        <g id="S2W-Board-2" transform="translate(-1005.000000, -99.000000)" fill="#FFFFFF">            <g id="GAME" transform="translate(240.000000, 88.000000)">                <g id="Stats">                    <g id="Cold" transform="translate(765.000000, 9.000000)">                        <g id="circle-Container[3h]">                            <path d="M18.9368971,12.7135377 L15.8224195,14.295597 L11.3441197,11.7269256 L15.8349316,9.27199497 L18.9657445,10.8943307 C19.0731403,10.9500733 19.1895726,10.9764947 19.3042672,10.9764947 C19.5479061,10.9764947 19.7842464,10.8575986 19.911453,10.6462277 C20.0987874,10.3356157 19.9792271,9.94283965 19.6438325,9.76948978 L17.2213451,8.51415315 L19.3119135,7.37126839 C19.6427898,7.19050764 19.7526185,6.79547615 19.5576378,6.48905286 C19.3626571,6.18230736 18.9365496,6.08048847 18.6060208,6.26124921 L16.5029403,7.41057821 L16.5029403,4.83385156 C16.5029403,4.47812988 16.1918749,4.18942824 15.807822,4.18942824 C15.4241167,4.18942824 15.1127037,4.47812988 15.1127037,4.83385156 L15.1127037,8.17067552 L10.702178,10.5817854 L10.7157328,5.94129304 L13.8149178,4.13561889 C14.1402332,3.94615843 14.2378973,3.54854924 14.0338801,3.24728134 C13.8298628,2.94601344 13.4009748,2.85482754 13.0753119,3.04428799 L10.7199035,4.41658746 L10.7251169,2.64635659 C10.7261595,2.29031271 10.4157892,2.00096663 10.0317363,2 C9.63760426,2.00225548 9.33592291,2.28709059 9.33488023,2.64281226 L9.32966684,4.42206505 L6.92977084,3.02688856 C6.60445547,2.83775032 6.17521991,2.92893622 5.97155024,3.23052633 C5.76753301,3.53211645 5.86623982,3.92972564 6.19120763,4.11886388 L9.32549613,5.94064861 L9.31194132,10.5611638 L4.90176315,8.03148008 L5.0460002,4.74717662 C5.06164036,4.39145495 4.7634346,4.09147589 4.37972929,4.07697637 C3.99046303,4.06022136 3.6724464,4.33893445 3.65680624,4.69465612 L3.54454463,7.25301671 L2.04656465,6.39400042 C1.7202066,6.20615102 1.29166616,6.30023683 1.08973428,6.60279358 C0.887802413,6.90567254 0.988594569,7.3026373 1.31530018,7.48984228 L2.79034125,8.3359701 L0.388707459,9.58679577 C0.0540079887,9.76111227 -0.0648572439,10.1538883 0.123172261,10.4641781 C0.250378914,10.6745823 0.486719142,10.7931562 0.729662995,10.7931562 C0.845052636,10.7931562 0.961832514,10.7664127 1.06957585,10.7103478 L4.14095615,9.11056693 L8.65574963,11.700182 L4.1353952,14.1715455 L1.03968577,12.5356769 C0.705333854,12.3594271 0.281311679,12.467368 0.0915443779,12.7760468 C-0.0989180416,13.08537 0.0175142769,13.4787904 0.350823511,13.6550402 L2.75523778,14.925843 L1.22006897,15.7652044 C0.889540209,15.9459651 0.779363955,16.3409966 0.974344643,16.6474199 C1.10398421,16.8513799 1.33580617,16.9647984 1.57388419,16.9647984 C1.6937921,16.9647984 1.81543781,16.9357993 1.92630918,16.8752235 L3.49727658,16.0165295 L3.49727658,18.5932561 C3.49727658,18.9493 3.80834203,19.2376794 4.1923949,19.2376794 C4.57610022,19.2376794 4.88751322,18.9493 4.88751322,18.5932561 L4.88751322,15.2564322 L9.3053377,12.8414558 L9.29143533,17.5934333 L6.20719535,19.2824669 C5.87631903,19.4635498 5.7668379,19.8589035 5.96181858,20.1650046 C6.15749439,20.4717501 6.58394948,20.573569 6.91413068,20.392486 L9.28726462,19.0926842 L9.280661,21.3539656 C9.27961832,21.7096873 9.58998865,21.9990334 9.97369396,22 L9.97577932,22 C10.3587895,22 10.669855,21.7125872 10.6708976,21.3575099 L10.6771537,19.1648596 L13.1072873,20.4179407 C13.2143356,20.4730389 13.3304203,20.4991381 13.4444197,20.4991381 C13.6887538,20.4991381 13.9257892,20.3795976 14.0526483,20.1679045 C14.2392875,19.856648 14.1186845,19.4645164 13.7829424,19.2914888 L10.681672,17.6923523 L10.6955743,12.8701326 L15.0908075,15.3914388 L14.9538692,18.6815421 C14.9392717,19.0372638 15.2381726,19.3365984 15.6215303,19.3504535 C15.6309144,19.3507757 15.6399509,19.3507757 15.6489875,19.3507757 C16.0205282,19.3507757 16.3288132,19.0785069 16.3430631,18.7311627 L16.4497638,16.1708688 L18.4788142,17.3346974 C18.5928136,17.4001063 18.7193251,17.4313609 18.8437513,17.4313609 C19.0766159,17.4313609 19.3042672,17.3227755 19.4356445,17.1259042 C19.6375764,16.8230252 19.5367842,16.4260605 19.2104262,16.2388555 L17.1810283,15.075027 L19.6049058,13.8438562 C19.9416907,13.6727618 20.0650742,13.2812747 19.8805203,12.9690516 C19.6963139,12.6568285 19.273682,12.5427655 18.9368971,12.7135377" id="Fill-1"></path>                        </g>                    </g>                </g>            </g>        </g>    </g></svg>